#!OML:ASF E:\emotionWalksFemale\Project 1\Capture day 1\Session 1\Female1.ASF
:FULLY-SPECIFIED
:DEGREES
3375
root 10.5369 15.1609 31.0463 -182.982 -185.393 -178.239
lowerback 9.46158 -1.65711 -2.85122
upperback -3.7795 -2.56051 0.46973
thorax -9.20354 -1.05401 2.54441
lowerneck -4.54892 -2.36656 -4.32374
upperneck 11.3677 -3.26625 3.92398
head 4.27775 -1.586 1.74341
rclavicle -2.98177e-014 -6.75868e-015
rhumerus -49.5408 -0.42084 -74.0442
rradius 50.1166
rwrist 4.15531
rhand 174.325 -232.993
rfingers 7.12502
rthumb -159.856 -261.969
lclavicle -2.98177e-014 -6.75868e-015
lhumerus -44.3877 7.67687 80.2523
lradius 40.5147
lwrist -7.02757
lhand -14.7209 -32.0338
lfingers 7.12502
lthumb 11.4339 -2.36557
rfemur -28.2147 4.8199 14.6343
rtibia 42.9468
rfoot -14.5196 -14.294
rtoes -9.53695
lfemur 1.3464 -7.79809 -32.4305
ltibia 27.0238
lfoot -22.955 6.49122
ltoes -10.409
3376
root 10.5258 15.1538 31.0813 -182.922 -185.815 -178.708
lowerback 9.49706 -1.71048 -2.42444
upperback -3.81396 -2.56519 0.602731
thorax -9.27263 -1.07522 2.44981
lowerneck -4.50719 -2.49583 -4.45968
upperneck 11.3259 -3.43027 3.93224
head 4.26764 -1.67247 1.75986
rclavicle -1.60022e-014 -1.59028e-015
rhumerus -49.5033 -0.563093 -73.8419
rradius 50.2544
rwrist 4.48762
rhand 174.818 -232.827
rfingers 7.12502
rthumb -159.381 -261.752
lclavicle -1.60022e-014 -1.59028e-015
lhumerus -44.468 7.67714 80.1929
lradius 40.4345
lwrist -7.12593
lhand -14.9652 -31.9073
lfingers 7.12502
lthumb 11.1983 -2.22614
rfemur -28.1539 5.64135 14.8343
rtibia 41.4565
rfoot -14.7964 -14.4617
rtoes -8.1738
lfemur 1.2004 -8.11627 -31.8576
ltibia 27.318
lfoot -23.1163 6.02245
ltoes -8.00564
3377
root 10.5176 15.1452 31.1153 -182.88 -186.181 -179.085
lowerback 9.57545 -1.72741 -1.93285
upperback -3.86303 -2.52064 0.644402
thorax -9.39273 -1.0788 2.21533
lowerneck -4.49754 -2.60277 -4.44633
upperneck 11.3546 -3.56858 3.85974
head 4.27944 -1.74386 1.72797
rclavicle -1.46107e-014 3.77691e-015
rhumerus -49.5001 -0.661332 -73.8139
rradius 50.2483
rwrist 4.43717
rhand 174.393 -232.68
rfingers 7.12502
rthumb -159.79 -261.649
lclavicle -1.46107e-014 3.77691e-015
lhumerus -44.6096 7.91287 79.9216
lradius 40.4213
lwrist -7.5541
lhand -14.976 -32.0881
lfingers 7.12502
lthumb 11.1879 -2.40638
rfemur -28.0893 6.54708 14.8997
rtibia 39.9258
rfoot -15.5065 -14.693
rtoes -4.67312
lfemur 1.02866 -8.28945 -31.3846
ltibia 27.7401
lfoot -23.3989 6.08456
ltoes -10.9515
3378
root 10.5141 15.1371 31.1587 -182.903 -186.395 -179.152
lowerback 9.66398 -1.68237 -1.77481
upperback -3.93052 -2.44255 0.629034
thorax -9.52968 -1.04795 2.10231
lowerneck -4.24043 -2.71137 -4.57171
upperneck 11.268 -3.71588 3.88923
head 4.21927 -1.82302 1.75312
rclavicle -6.31141e-015 1.23246e-014
rhumerus -49.554 -0.677971 -73.761
rradius 50.1212
rwrist 4.18355
rhand 173.908 -232.7
rfingers 7.12502
rthumb -160.256 -261.717
lclavicle -6.31141e-015 1.23246e-014
lhumerus -44.8329 8.23435 79.6377
lradius 40.2748
lwrist -7.89056
lhand -14.9246 -32.5374
lfingers 7.12502
lthumb 11.2375 -2.85837
rfemur -28.0035 7.33551 14.6953
rtibia 38.4693
rfoot -15.5728 -15.3047
rtoes -6.52836
lfemur 1.05746 -8.35428 -31.3095
ltibia 28.1209
lfoot -23.2751 6.00183
ltoes -12.7438
3379
root 10.508 15.1323 31.205 -182.858 -186.58 -178.984
lowerback 9.66912 -1.62467 -1.977
upperback -3.99997 -2.3961 0.601423
thorax -9.60469 -1.01197 2.18047
lowerneck -4.01219 -2.79253 -4.79507
upperneck 11.2506 -3.82485 3.96692
head 4.18638 -1.88455 1.81076
rclavicle 1.58282e-014 6.55989e-015
rhumerus -49.5996 -0.783793 -73.4991
rradius 50.1184
rwrist 4.60027
rhand 173.928 -232.35
rfingers 7.12502
rthumb -160.237 -261.366
lclavicle 1.58282e-014 6.55989e-015
lhumerus -44.9895 8.36068 79.5208
lradius 40.0072
lwrist -7.86626
lhand -14.7799 -32.6795
lfingers 7.12502
lthumb 11.3771 -3.00811
rfemur -28.0656 7.99312 14.2839
rtibia 37.1775
rfoot -15.2163 -16.0137
rtoes -10.8679
lfemur 1.17369 -8.39172 -31.4792
ltibia 28.2413
lfoot -23.4432 5.68997
ltoes -11.4035
3380
root 10.501 15.1271 31.2519 -182.826 -186.868 -178.853
lowerback 9.60462 -1.60472 -2.11206
upperback -4.01223 -2.38945 0.568522
thorax -9.57676 -1.00206 2.21777
lowerneck -3.89361 -2.84776 -4.86228
upperneck 11.243 -3.891 3.8985
head 4.16744 -1.92467 1.79893
rclavicle 1.71452e-014 -4.17448e-015
rhumerus -49.5673 -0.777493 -73.3467
rradius 50.1183
rwrist 4.88327
rhand 174.157 -232.193
rfingers 7.12502
rthumb -160.017 -261.185
lclavicle 1.71452e-014 -4.17448e-015
lhumerus -45.054 8.4168 79.4401
lradius 39.6515
lwrist -7.78529
lhand -14.7021 -32.8359
lfingers 7.12502
lthumb 11.4521 -3.16872
rfemur -28.0862 8.74525 13.8281
rtibia 35.9474
rfoot -15.4658 -16.4626
rtoes -11.4584
lfemur 1.39722 -8.56811 -31.6311
ltibia 28.2464
lfoot -23.4473 5.6824
ltoes -10.9298
3381
root 10.4956 15.1201 31.2963 -182.896 -187.185 -178.951
lowerback 9.66496 -1.58608 -1.92417
upperback -4.0003 -2.3424 0.54051
thorax -9.60976 -0.991392 2.07616
lowerneck -3.79417 -2.94765 -4.81254
upperneck 11.1554 -4.02457 3.83439
head 4.12809 -1.99272 1.76596
rclavicle 7.82715e-015 -1.59028e-015
rhumerus -49.5085 -0.8525 -73.3043
rradius 50.0351
rwrist 4.82489
rhand 174.654 -232.447
rfingers 7.12502
rthumb -159.539 -261.388
lclavicle 7.82715e-015 -1.59028e-015
lhumerus -45.0966 8.41167 79.2833
lradius 39.2289
lwrist -7.86746
lhand -14.8971 -33.4365
lfingers 7.12502
lthumb 11.264 -3.75896
rfemur -27.9313 9.74278 13.5305
rtibia 34.6489
rfoot -14.9763 -17.0819
rtoes -14.5859
lfemur 1.63875 -8.80692 -31.5484
ltibia 28.3143
lfoot -23.33 5.96635
ltoes -12.7858
3382
root 10.4937 15.1183 31.3386 -182.944 -187.448 -179.036
lowerback 9.79543 -1.55172 -1.72173
upperback -4.03664 -2.27392 0.511678
thorax -9.73856 -0.969247 1.92552
lowerneck -3.66319 -3.06919 -4.87885
upperneck 11.0856 -4.19747 3.92463
head 4.09593 -2.0776 1.79772
rclavicle 2.80038e-014 1.23246e-014
rhumerus -49.5106 -0.997723 -73.2129
rradius 49.9658
rwrist 4.75273
rhand 174.904 -232.621
rfingers 7.12502
rthumb -159.299 -261.537
lclavicle 2.80038e-014 1.23246e-014
lhumerus -45.245 8.41736 79.1386
lradius 38.9601
lwrist -8.06669
lhand -15.2103 -33.6789
lfingers 7.12502
lthumb 10.9619 -3.9851
rfemur -27.7336 10.7404 13.2365
rtibia 33.2612
rfoot -14.8612 -17.8965
rtoes -16.9835
lfemur 1.74818 -9.01166 -31.4748
ltibia 28.4491
lfoot -23.2826 6.02882
ltoes -14.2302
3383
root 10.4906 15.1197 31.3853 -182.91 -187.708 -179.012
lowerback 9.68828 -1.54879 -1.72576
upperback -4.02896 -2.26842 0.512183
thorax -9.66685 -0.967769 1.92309
lowerneck -3.5917 -3.13658 -5.07423
upperneck 11.0094 -4.29467 4.10684
head 4.07322 -2.1252 1.88172
rclavicle -1.70955e-014 5.36719e-015
rhumerus -49.4735 -0.809885 -73.2643
rradius 50.0353
rwrist 4.35252
rhand 173.934 -232.728
rfingers 7.12502
rthumb -160.231 -261.742
lclavicle -1.70955e-014 5.36719e-015
lhumerus -45.4001 8.76825 78.9231
lradius 38.9182
lwrist -8.41652
lhand -15.1505 -33.2265
lfingers 7.12502
lthumb 11.0196 -3.53575
rfemur -27.5576 11.831 12.7883
rtibia 31.8686
rfoot -15.3238 -18.7337
rtoes -15.8341
lfemur 1.7827 -9.16877 -31.4887
ltibia 28.5944
lfoot -23.2706 5.71795
ltoes -13.5325
3384
root 10.4762 15.1168 31.4391 -182.86 -187.938 -178.973
lowerback 9.3489 -1.51316 -1.8823
upperback -3.92562 -2.23319 0.521373
thorax -9.34872 -0.947602 1.99944
lowerneck -3.62567 -3.20909 -5.29988
upperneck 10.9547 -4.39409 4.30742
head 4.07617 -2.17289 1.97438
rclavicle 2.58172e-014 -1.74931e-014
rhumerus -49.3398 -0.598393 -73.3944
rradius 50.1143
rwrist 3.60037
rhand 172.729 -233.083
rfingers 7.12502
rthumb -161.39 -262.213
lclavicle 2.58172e-014 -1.74931e-014
lhumerus -45.4597 9.20736 78.6311
lradius 38.9711
lwrist -8.81069
lhand -14.741 -32.9564
lfingers 7.12502
lthumb 11.4146 -3.28714
rfemur -27.4528 13.2076 12.2856
rtibia 30.6112
rfoot -15.7571 -19.699
rtoes -15.45
lfemur 1.91494 -9.13254 -31.4245
ltibia 28.6404
lfoot -23.2286 5.4342
ltoes -13.561
3385
root 10.4546 15.1071 31.4949 -182.878 -188.163 -178.88
lowerback 9.18602 -1.41254 -2.11796
upperback -3.85178 -2.12749 0.48944
thorax -9.17021 -0.887382 2.07239
lowerneck -3.69148 -3.34908 -5.35053
upperneck 11.0466 -4.57091 4.23838
head 4.12377 -2.2646 1.95069
rclavicle 1.4561e-014 1.47101e-014
rhumerus -49.2391 -0.764537 -73.3317
rradius 50.0183
rwrist 3.18842
rhand 172.728 -233.627
rfingers 7.12502
rthumb -161.391 -262.757
lclavicle 1.4561e-014 1.47101e-014
lhumerus -45.4621 9.16412 78.5183
lradius 38.8604
lwrist -8.72769
lhand -14.642 -33.2059
lfingers 7.12502
lthumb 11.51 -3.54192
rfemur -27.3576 14.6815 11.7368
rtibia 29.4838
rfoot -15.2998 -20.9123
rtoes -18.5661
lfemur 2.218 -8.99392 -31.3801
ltibia 28.6035
lfoot -23.261 5.146
ltoes -13.9545
3386
root 10.4416 15.0925 31.5482 -182.939 -188.426 -178.703
lowerback 9.17661 -1.3376 -2.30597
upperback -3.80694 -2.0573 0.410653
thorax -9.11607 -0.846293 2.08116
lowerneck -3.70697 -3.47507 -5.3269
upperneck 11.1305 -4.72756 4.08809
head 4.15591 -2.34809 1.89179
rclavicle 2.6339e-015 3.77691e-015
rhumerus -49.106 -1.03036 -73.1489
rradius 49.8647
rwrist 3.43069
rhand 173.641 -234.257
rfingers 7.12502
rthumb -160.513 -263.3
lclavicle 2.6339e-015 3.77691e-015
lhumerus -45.4142 9.1645 78.3763
lradius 38.5639
lwrist -8.58906
lhand -14.728 -33.3255
lfingers 7.12502
lthumb 11.4271 -3.65692
rfemur -27.2053 16.0212 11.0814
rtibia 28.405
rfoot -15.6102 -21.8653
rtoes -18.1804
lfemur 2.57256 -8.97768 -31.4985
ltibia 28.6017
lfoot -23.4128 5.0017
ltoes -15.2686
3387
root 10.4358 15.0823 31.5983 -182.932 -188.715 -178.771
lowerback 9.08453 -1.33217 -2.21785
upperback -3.81792 -2.0353 0.423889
thorax -9.07731 -0.8411 2.0392
lowerneck -3.52867 -3.57274 -5.49616
upperneck 11.0956 -4.86506 4.1847
head 4.12869 -2.42008 1.9449
rclavicle 1.14798e-014 -7.95139e-016
rhumerus -48.9831 -0.974363 -73.0968
rradius 49.7466
rwrist 3.86743
rhand 174.178 -234.289
rfingers 7.12502
rthumb -159.996 -263.28
lclavicle 1.14798e-014 -7.95139e-016
lhumerus -45.5404 9.62467 78.0274
lradius 38.4092
lwrist -9.09732
lhand -14.5293 -33.1546
lfingers 7.12502
lthumb 11.6187 -3.49667
rfemur -27.1162 17.4247 10.6099
rtibia 27.3247
rfoot -15.4677 -23.0627
rtoes -19.597
lfemur 2.72255 -9.07939 -31.381
ltibia 28.7284
lfoot -23.6151 5.02439
ltoes -17.887
3388
root 10.4281 15.0736 31.6463 -182.851 -189.006 -178.951
lowerback 8.9088 -1.32306 -1.98994
upperback -3.83714 -1.98828 0.445064
thorax -9.00355 -0.832321 1.92049
lowerneck -3.41387 -3.70412 -5.63154
upperneck 11.0977 -5.0498 4.28842
head 4.12547 -2.51293 1.99093
rclavicle 6.03808e-015 -2.52457e-014
rhumerus -49.0525 -0.810921 -73.3198
rradius 49.7399
rwrist 4.50246
rhand 173.472 -234.209
rfingers 7.12502
rthumb -160.675 -263.269
lclavicle 6.03808e-015 -2.52457e-014
lhumerus -45.7125 9.80283 77.803
lradius 38.429
lwrist -9.34624
lhand -14.3702 -33.064
lfingers 7.12502
lthumb 11.7721 -3.41487
rfemur -27.078 18.916 10.2025
rtibia 26.1624
rfoot -16.8202 -23.9926
rtoes -15.646
lfemur 2.63729 -9.20736 -31.1173
ltibia 29.0396
lfoot -23.8243 4.70131
ltoes -17.1015
